<svg xmlns="http://www.w3.org/2000/svg" xmlns:xlink="http://www.w3.org/1999/xlink" width="493" zoomAndPan="magnify" viewBox="0 0 369.75 234.749995" height="313" preserveAspectRatio="xMidYMid meet" version="1.0"><defs><clipPath id="4a0cc91bdd"><path d="M 0.0703125 0 L 369.429688 0 L 369.429688 234.5 L 0.0703125 234.5 Z M 0.0703125 0 " clip-rule="nonzero"/></clipPath></defs><g clip-path="url(#4a0cc91bdd)"><path fill="#f0f0f0" d="M 149.136719 104.710938 C 149.136719 104.710938 184.089844 102.117188 184.089844 61.128906 C 184.089844 20.136719 155.492188 0.132812 119.269531 0.132812 L 0.0703125 0.132812 L 0.0703125 229.195312 L 119.269531 229.195312 C 119.269531 229.195312 192.035156 231.496094 192.035156 161.585938 C 192.035156 161.585938 195.207031 104.710938 149.136719 104.710938 Z M 110.691406 40.84375 L 119.269531 40.84375 C 119.269531 40.84375 135.472656 40.84375 135.472656 64.679688 C 135.472656 88.507812 125.945312 91.964844 115.136719 91.964844 L 52.59375 91.964844 L 52.59375 40.84375 Z M 115.902344 188.484375 L 52.59375 188.484375 L 52.59375 127.269531 L 119.269531 127.269531 C 119.269531 127.269531 143.417969 126.953125 143.417969 158.726562 C 143.417969 185.519531 125.382812 188.28125 115.902344 188.484375 Z M 289.082031 58.410156 C 200.992188 58.410156 201.070312 146.425781 201.070312 146.425781 C 201.070312 146.425781 195.023438 233.988281 289.082031 233.988281 C 289.082031 233.988281 367.460938 238.464844 367.460938 173.074219 L 327.152344 173.074219 C 327.152344 173.074219 328.496094 197.699219 290.425781 197.699219 C 290.425781 197.699219 250.109375 200.402344 250.109375 157.847656 L 368.808594 157.847656 C 368.808594 157.847656 381.792969 58.410156 289.082031 58.410156 Z M 249.667969 127.269531 C 249.667969 127.269531 254.589844 91.960938 289.976562 91.960938 C 325.359375 91.960938 324.914062 127.269531 324.914062 127.269531 Z M 334.304688 41.832031 L 239.796875 41.832031 L 239.796875 13.625 L 334.304688 13.625 Z M 334.304688 41.832031 " fill-opacity="1" fill-rule="nonzero"/></g></svg>