<svg xmlns="http://www.w3.org/2000/svg" version="1.1" xmlns:xlink="http://www.w3.org/1999/xlink" xmlns:svgjs="http://svgjs.dev/svgjs" width="1440" height="560" preserveAspectRatio="none" viewBox="0 0 1440 560"><g mask="url(&quot;#SvgjsMask1007&quot;)" fill="none"><path d="M1363.51-33.72C1169.03-27.71 1005.83 267.25 645.79 267.34 285.75 267.43 113.35 84.01-71.93 82.54" stroke="rgba(241, 55, 81, 0.5)" stroke-width="2"></path><path d="M1274.42-4.79C1159.3-2.95 1056.51 139.33 837.04 139.4 617.56 139.47 618.34 69.4 399.65 69.4 180.96 69.4 73.01 139.18-37.73 139.4" stroke="rgba(241, 55, 81, 0.5)" stroke-width="2"></path><path d="M545.95-1.32C416.21 23.02 351.9 350.03 152.24 350.5-47.41 350.97-129.13 139.25-241.46 132.1" stroke="rgba(241, 55, 81, 0.5)" stroke-width="2"></path><path d="M1330.07-48.03C1149.68-46.69 995.71 123.26 630.25 127.82 264.8 132.38 115.89 370.66-69.56 374.22" stroke="rgba(241, 55, 81, 0.5)" stroke-width="2"></path><path d="M718.86-59.47C590.91-49.21 533.16 189.85 280.46 207.76 27.76 225.67-33.14 440.81-157.94 448.56" stroke="rgba(241, 55, 81, 0.5)" stroke-width="2"></path></g><defs><mask id="SvgjsMask1007"><rect width="1440" height="560" fill="#ffffff"></rect></mask></defs></svg>