<svg xmlns="http://www.w3.org/2000/svg" xmlns:xlink="http://www.w3.org/1999/xlink" width="500" zoomAndPan="magnify" viewBox="0 0 375 374.999991" height="500" preserveAspectRatio="xMidYMid meet" version="1.0"><defs><clipPath id="eb25bb59e9"><path d="M 0.0585938 33.070312 L 326 33.070312 L 326 342 L 0.0585938 342 Z M 0.0585938 33.070312 " clip-rule="nonzero"/></clipPath></defs><path fill="#f0f0f0" d="M 239.300781 313.355469 L 239.21875 313.390625 L 239.019531 313.472656 Z M 239.300781 313.355469 " fill-opacity="1" fill-rule="nonzero"/><path fill="#f0f0f0" d="M 20.421875 187.851562 C 20.421875 187.796875 20.421875 187.734375 20.382812 187.6875 C 20.394531 187.742188 20.414062 187.804688 20.421875 187.851562 Z M 20.421875 187.851562 " fill-opacity="1" fill-rule="nonzero"/><path fill="#f0f0f0" d="M 20.367188 187.667969 L 20.367188 187.722656 L 20.328125 187.542969 Z M 20.367188 187.667969 " fill-opacity="1" fill-rule="nonzero"/><path fill="#f0f0f0" d="M 90.925781 59.890625 L 90.597656 60.019531 L 90.753906 59.957031 Z M 90.925781 59.890625 " fill-opacity="1" fill-rule="nonzero"/><path fill="#f0f0f0" d="M 28.609375 198.710938 L 28.609375 198.632812 C 28.570312 198.449219 28.527344 198.296875 28.492188 198.148438 C 28.519531 198.332031 28.570312 198.523438 28.609375 198.710938 Z M 28.609375 198.710938 " fill-opacity="1" fill-rule="nonzero"/><g clip-path="url(#eb25bb59e9)"><path fill="#f0f0f0" d="M 325.15625 194.421875 C 325.035156 192.527344 324.863281 190.644531 324.683594 188.773438 C 324.53125 187.027344 324.210938 185.292969 323.949219 183.570312 C 323.707031 181.976562 323.40625 180.398438 323.117188 178.8125 C 322.554688 175.621094 321.863281 172.4375 321.277344 169.261719 C 321.246094 169.0625 321.222656 168.863281 321.191406 168.664062 L 321.273438 168.074219 C 321.464844 166.699219 321.664062 165.257812 321.835938 163.851562 C 322.046875 161.976562 322.226562 160.105469 322.519531 158.230469 C 322.816406 156.359375 322.914062 154.53125 323.105469 152.699219 C 323.261719 151.292969 323.367188 149.886719 323.476562 148.492188 C 323.742188 145.0625 323.886719 141.628906 324.015625 138.199219 C 324.128906 135.046875 324.078125 131.917969 324.015625 128.773438 C 323.976562 125.246094 323.886719 121.742188 323.761719 118.210938 C 323.648438 115.1875 323.414062 112.144531 323.078125 109.132812 C 322.925781 107.484375 322.824219 105.84375 322.582031 104.207031 C 322.300781 102.207031 321.972656 100.203125 321.691406 98.207031 C 321.472656 96.683594 321.128906 95.167969 320.828125 93.644531 C 320.523438 92.121094 320.234375 90.71875 319.894531 89.265625 C 319.507812 87.574219 319.160156 85.875 318.65625 84.199219 C 318.347656 83.128906 318.027344 82.078125 317.722656 81.015625 C 317.558594 80.316406 317.347656 79.628906 317.09375 78.957031 C 316.40625 77.152344 315.6875 75.332031 314.992188 73.507812 C 314.34375 71.960938 313.582031 70.472656 312.714844 69.039062 C 311.273438 66.601562 309.625 64.3125 307.765625 62.175781 C 303.742188 57.539062 299.101562 53.632812 293.847656 50.460938 C 287.875 46.878906 281.550781 44.097656 274.878906 42.113281 C 273.835938 41.785156 272.777344 41.476562 271.707031 41.1875 C 270.945312 40.886719 270.15625 40.605469 269.359375 40.335938 C 267.78125 39.824219 266.046875 39.417969 264.355469 39.039062 C 260.695312 38.238281 257.003906 37.632812 253.28125 37.226562 C 250.0625 36.871094 246.855469 36.542969 243.601562 36.261719 C 241.585938 36.082031 239.558594 35.929688 237.535156 35.792969 C 236.882812 35.703125 236.238281 35.617188 235.601562 35.539062 L 229.789062 34.855469 C 228.730469 34.722656 227.667969 34.558594 226.601562 34.476562 L 220.980469 34.007812 C 219.546875 33.90625 218.101562 33.726562 216.652344 33.671875 C 215.039062 33.589844 213.414062 33.535156 211.785156 33.46875 L 207.460938 33.289062 C 207.007812 33.289062 206.554688 33.289062 206.089844 33.289062 C 204.867188 33.289062 203.679688 33.289062 202.484375 33.289062 L 199.886719 33.289062 L 198.609375 33.246094 L 193.324219 33.378906 C 190.488281 33.445312 187.648438 33.550781 184.800781 33.667969 C 181.953125 33.78125 179.273438 33.878906 176.515625 34.058594 C 174.457031 34.175781 172.445312 34.304688 170.386719 34.433594 C 168.910156 34.523438 167.410156 34.585938 165.914062 34.714844 C 162.480469 34.996094 159.105469 35.257812 155.699219 35.546875 C 149.9375 36.007812 144.234375 36.632812 138.542969 37.285156 C 131.082031 38.132812 123.664062 39.148438 116.445312 40.503906 C 114.765625 40.808594 113.097656 41.144531 111.449219 41.511719 C 107.277344 42.328125 103.160156 43.355469 99.09375 44.59375 C 97.820312 44.953125 96.578125 45.339844 95.367188 45.746094 C 93.871094 46.246094 92.367188 46.734375 90.871094 47.214844 C 89.765625 47.585938 88.621094 47.902344 87.535156 48.324219 C 84.847656 49.308594 82.183594 50.300781 79.492188 51.269531 C 78.429688 51.660156 77.433594 52.121094 76.410156 52.53125 C 74.832031 53.21875 73.246094 53.851562 71.640625 54.496094 C 63.96875 57.667969 57.511719 61.570312 51.113281 65.503906 C 47.578125 67.667969 44.078125 69.855469 40.59375 72.03125 C 38.972656 73.046875 37.449219 74.089844 35.890625 75.152344 C 32.230469 77.527344 29.09375 80.457031 26.476562 83.945312 C 24.960938 86.003906 24.128906 88.253906 23.113281 90.417969 C 22.8125 91.101562 22.679688 91.789062 22.425781 92.429688 C 22.171875 93.066406 22.015625 93.636719 21.84375 94.253906 L 21.84375 94.144531 C 21.78125 94.417969 21.710938 94.679688 21.652344 94.945312 L 21.652344 94.871094 L 21.5 95.703125 C 21.425781 96.003906 21.355469 96.304688 21.28125 96.613281 C 21.28125 96.613281 21.28125 96.574219 21.28125 96.554688 C 21.28125 96.640625 21.238281 96.730469 21.21875 96.8125 C 21.199219 96.894531 21.21875 96.722656 21.253906 96.675781 C 21.171875 97.011719 21.09375 97.363281 21.007812 97.671875 C 21.007812 97.753906 20.964844 97.835938 20.949219 97.910156 C 20.9375 97.988281 20.910156 98.070312 20.894531 98.152344 L 20.894531 98.042969 C 20.894531 98.171875 20.839844 98.296875 20.808594 98.425781 L 20.808594 98.480469 C 20.464844 99.96875 20.257812 101.488281 19.941406 102.996094 C 19.625 104.507812 19.441406 106.058594 19.1875 107.582031 C 18.636719 110.875 18.097656 114.171875 17.601562 117.472656 C 17.082031 120.902344 16.6875 124.335938 16.40625 127.820312 C 16.125 131.054688 16.085938 134.3125 16.085938 137.558594 C 16.085938 140.804688 16.125 143.957031 16.207031 147.167969 C 16.25 148.710938 16.296875 150.261719 16.367188 151.800781 C 16.429688 153.570312 16.429688 155.335938 16.558594 157.105469 C 16.6875 159.011719 16.769531 160.941406 16.886719 162.855469 C 16.96875 164.441406 17.140625 166.035156 17.292969 167.621094 C 17.535156 170.613281 17.875 173.617188 18.335938 176.605469 C 18.917969 180.351562 19.511719 184.113281 20.394531 187.839844 C 20.808594 189.527344 21.246094 191.222656 21.671875 192.910156 C 21.671875 193.019531 21.71875 193.128906 21.746094 193.238281 C 22.191406 194.96875 22.722656 196.671875 23.222656 198.402344 C 23.722656 200.128906 24.21875 201.640625 24.738281 203.261719 C 25.6875 206.335938 26.6875 209.4375 27.726562 212.46875 C 29.988281 219.140625 32.371094 225.796875 34.738281 232.441406 C 37.03125 238.921875 39.933594 245.332031 42.90625 251.726562 C 45.796875 257.957031 48.398438 264.222656 51.691406 270.402344 C 52.128906 271.203125 52.582031 272.007812 53.007812 272.808594 C 53.222656 273.046875 53.484375 273.210938 53.789062 273.304688 C 54.09375 273.398438 54.398438 273.410156 54.710938 273.339844 C 55.445312 273.234375 55.898438 272.796875 55.679688 272.40625 C 53.816406 268.972656 52.039062 265.542969 50.40625 262.050781 C 48.9375 258.890625 47.550781 255.734375 46.136719 252.570312 C 44.726562 249.40625 43.339844 246.078125 41.972656 242.824219 C 40.605469 239.574219 39.488281 236.203125 38.328125 232.882812 C 37.265625 229.792969 36.316406 226.703125 35.34375 223.59375 C 34.367188 220.484375 33.414062 217.472656 32.480469 214.433594 C 30.351562 207.515625 28.316406 200.589844 26.496094 193.636719 C 26.449219 193.425781 26.40625 193.21875 26.351562 193.011719 C 26.332031 192.964844 26.316406 192.914062 26.304688 192.863281 C 24.769531 186.601562 23.667969 180.265625 23.003906 173.851562 C 22.707031 170.421875 22.316406 166.949219 22.207031 163.480469 C 22.070312 160.140625 21.9375 156.777344 21.878906 153.421875 C 21.835938 150.316406 21.816406 147.242188 21.816406 144.140625 C 21.816406 140.792969 21.816406 137.441406 21.9375 134.101562 C 22.0625 130.757812 22.316406 127.503906 22.730469 124.210938 C 23.140625 120.917969 23.675781 117.449219 24.246094 114.082031 C 24.789062 110.839844 25.308594 107.601562 25.851562 104.371094 C 26.125 102.730469 26.457031 101.097656 26.757812 99.46875 C 27.011719 98.015625 27.394531 96.566406 27.753906 95.132812 C 27.753906 95.089844 27.753906 95.054688 27.753906 95.023438 C 27.992188 94.265625 28.246094 93.511719 28.488281 92.765625 C 28.644531 92.183594 28.84375 91.621094 29.089844 91.074219 C 30.078125 88.609375 31.328125 86.285156 32.84375 84.101562 C 35.019531 81.570312 37.46875 79.347656 40.203125 77.433594 C 41.9375 76.257812 43.632812 75.097656 45.472656 73.960938 C 47.882812 72.46875 50.277344 70.980469 52.671875 69.503906 L 52.71875 69.503906 C 52.316406 69.867188 51.9375 70.246094 51.585938 70.617188 C 50.804688 71.449219 50.03125 72.277344 49.246094 73.09375 C 48.464844 73.910156 47.949219 74.660156 47.292969 75.441406 C 46.117188 76.84375 45.0625 78.332031 44.128906 79.902344 C 43.695312 80.644531 43.222656 81.390625 42.851562 82.132812 L 41.480469 85.050781 C 41.09375 85.839844 40.875 86.648438 40.574219 87.460938 C 40.3125 88.144531 40.097656 88.832031 39.886719 89.519531 C 39.355469 91.351562 38.878906 93.195312 38.453125 95.050781 C 37.710938 98.226562 37.167969 101.40625 36.539062 104.589844 C 35.808594 108.21875 34.980469 111.84375 34.113281 115.46875 C 33.09375 118.210938 31.710938 120.855469 30.820312 123.578125 C 29.714844 126.949219 28.953125 130.367188 28.179688 133.765625 C 27.417969 137.042969 26.921875 140.347656 26.332031 143.648438 C 25.808594 146.757812 25.550781 149.890625 25.136719 153.015625 C 24.945312 154.539062 24.855469 156.078125 24.792969 157.601562 C 24.726562 159.265625 24.617188 160.933594 24.59375 162.597656 C 24.460938 169.234375 24.847656 175.839844 25.761719 182.417969 C 26.160156 185.066406 26.523438 187.714844 27.003906 190.351562 C 27.5 193.09375 27.898438 195.839844 28.589844 198.585938 C 28.636719 198.792969 28.6875 199.003906 28.742188 199.21875 C 28.691406 199.03125 28.652344 198.839844 28.609375 198.648438 C 28.78125 199.382812 28.972656 200.128906 29.152344 200.863281 C 29.109375 200.671875 29.0625 200.488281 29.023438 200.296875 C 29.152344 200.871094 29.304688 201.453125 29.425781 202.023438 L 29.304688 201.460938 C 30.105469 204.824219 31.835938 208.089844 33.207031 211.378906 C 33.332031 212.066406 33.433594 212.703125 33.585938 213.355469 C 33.585938 213.203125 33.511719 213.066406 33.484375 212.929688 C 33.484375 213.085938 33.550781 213.230469 33.59375 213.390625 C 34.15625 215.667969 34.738281 217.933594 35.324219 220.203125 C 35.742188 221.898438 36.378906 223.574219 36.894531 225.257812 C 37.332031 226.582031 37.757812 227.90625 38.265625 229.214844 C 38.890625 230.960938 39.488281 232.710938 40.175781 234.417969 C 40.976562 236.324219 41.761719 238.21875 42.554688 240.109375 C 45.371094 246.609375 48.539062 252.929688 52.0625 259.078125 C 53.355469 261.417969 54.75 263.742188 56.246094 266.050781 C 56.617188 266.621094 57.015625 267.183594 57.394531 267.746094 C 57.675781 269.179688 57.929688 270.613281 58.222656 272.054688 C 58.417969 273.09375 58.738281 274.09375 59.179688 275.054688 C 59.246094 275.199219 59.328125 275.335938 59.410156 275.472656 C 58.402344 276.703125 57.40625 277.929688 56.425781 279.171875 C 54.035156 282.222656 51.554688 285.242188 48.992188 288.230469 C 46.933594 290.660156 44.609375 293.035156 42.207031 295.367188 C 40.539062 296.816406 38.773438 298.230469 37.066406 299.644531 C 33.855469 302.257812 30.578125 304.859375 27.457031 307.511719 C 23.945312 310.476562 20.539062 313.46875 17.347656 316.542969 C 11.761719 321.957031 6.820312 327.90625 2.515625 334.386719 C 2.042969 335.132812 1.582031 335.875 1.144531 336.625 C 0.71875 337.28125 0.425781 337.992188 0.265625 338.757812 C 0.09375 339.648438 0.953125 340.632812 2.324219 341.078125 C 4.4375 341.761719 6.746094 341.394531 8.832031 340.824219 C 9.5 340.941406 10.171875 341.015625 10.847656 341.050781 C 12.910156 341.128906 14.96875 341.070312 17.027344 340.878906 C 19.839844 340.652344 22.589844 340.253906 25.328125 339.855469 C 30.921875 339.050781 36.496094 338.230469 42.097656 337.445312 C 47.695312 336.664062 53.453125 335.847656 59.097656 334.949219 C 64.738281 334.050781 70.460938 333.019531 76.097656 331.976562 C 81.730469 330.933594 87.25 329.972656 92.753906 328.859375 C 95.722656 328.257812 98.648438 327.632812 101.597656 326.964844 C 104.441406 326.335938 107.125 325.539062 109.835938 324.734375 C 111.21875 324.300781 112.574219 323.792969 113.90625 323.21875 C 114.589844 322.9375 115.277344 322.644531 115.921875 322.320312 C 116.519531 322.011719 117.074219 321.640625 117.589844 321.207031 C 118.03125 320.882812 118.292969 320.449219 118.378906 319.910156 C 118.464844 319.421875 118.320312 319.011719 117.941406 318.691406 C 117.542969 318.269531 117.066406 317.980469 116.511719 317.816406 C 115.5625 317.542969 114.597656 317.421875 113.609375 317.453125 C 112.371094 317.496094 111.148438 317.664062 109.945312 317.949219 L 107.886719 318.386719 L 103.898438 319.246094 C 93.125 321.578125 82 323.363281 71.242188 325.695312 C 67.0625 326.589844 62.925781 327.535156 58.792969 328.484375 L 58.835938 328.484375 C 56.351562 329.046875 53.859375 329.636719 51.375 330.214844 L 45.882812 331.398438 C 44.429688 331.710938 42.976562 331.984375 41.519531 332.238281 C 39.941406 332.527344 38.355469 332.839844 36.769531 333.082031 C 34.757812 333.390625 32.761719 333.691406 30.777344 334.007812 L 31.960938 333.671875 C 34.230469 332.984375 36.597656 332.402344 38.9375 331.824219 L 46.558594 329.882812 C 51.972656 328.550781 57.421875 327.261719 62.863281 325.972656 L 61.972656 326.183594 C 66.335938 325.222656 70.675781 324.234375 75.011719 323.261719 C 79.347656 322.285156 83.535156 321.402344 87.785156 320.414062 L 86.878906 320.625 C 91.628906 319.539062 96.398438 318.4375 101.125 317.289062 C 105.09375 316.347656 108.996094 315.328125 112.976562 314.40625 L 113.019531 314.40625 C 113.273438 314.648438 113.535156 314.882812 113.789062 315.128906 C 114.65625 315.878906 115.570312 316.566406 116.53125 317.1875 C 119.003906 318.832031 122.257812 320.136719 125.457031 321.304688 C 128.621094 322.410156 131.835938 323.347656 135.097656 324.117188 C 137.882812 324.804688 140.714844 325.425781 143.585938 325.976562 C 146.332031 326.5 149.078125 327.042969 151.886719 327.441406 L 156.550781 328.125 C 158.21875 328.359375 159.984375 328.503906 161.671875 328.6875 C 162.898438 328.828125 164.164062 328.910156 165.398438 329 C 167.046875 329.128906 168.691406 329.285156 170.339844 329.382812 C 173.484375 329.554688 176.625 329.734375 179.796875 329.847656 C 182.96875 329.964844 186.152344 330.027344 189.34375 330.089844 C 191.925781 330.136719 194.566406 330.089844 197.148438 330.019531 C 198.59375 329.972656 200.078125 329.960938 201.503906 329.875 L 206.753906 329.535156 C 209.878906 329.328125 213 328.992188 216.0625 328.585938 C 219.246094 328.175781 222.390625 327.714844 225.558594 327.214844 C 231.214844 326.34375 236.746094 325.15625 242.210938 323.972656 C 244.921875 323.382812 247.652344 322.765625 250.261719 322.046875 L 254.488281 320.886719 C 258.363281 319.765625 262.136719 318.367188 265.804688 316.691406 C 267.089844 316.136719 268.277344 315.519531 269.46875 314.910156 C 270.292969 314.46875 271.179688 314.0625 271.960938 313.605469 C 273.546875 312.683594 275.171875 311.785156 276.691406 310.824219 C 280.164062 308.648438 283.394531 306.390625 286.558594 304.097656 C 287.121094 303.6875 287.644531 303.234375 288.183594 302.808594 C 288.726562 302.382812 289.523438 301.808594 290.140625 301.285156 C 291.371094 300.199219 292.714844 299.128906 293.828125 298.011719 C 294.9375 296.894531 296.25 295.710938 297.3125 294.519531 C 298.527344 293.144531 299.785156 291.773438 300.867188 290.359375 C 300.675781 290.605469 300.476562 290.867188 300.285156 291.128906 C 300.59375 290.730469 300.894531 290.339844 301.183594 289.949219 L 301.871094 289.035156 C 301.679688 289.296875 301.480469 289.550781 301.285156 289.804688 C 301.699219 289.28125 302.082031 288.761719 302.496094 288.230469 C 302.359375 288.410156 302.226562 288.59375 302.089844 288.765625 L 303.460938 286.988281 C 303.339844 287.136719 303.222656 287.28125 303.113281 287.421875 C 305.4375 284.3125 307.539062 281.0625 309.417969 277.667969 C 311.027344 274.804688 312.46875 271.863281 313.742188 268.835938 C 315.191406 265.40625 316.488281 261.972656 317.621094 258.542969 C 318.753906 255.109375 319.480469 251.742188 320.3125 248.335938 C 321.027344 245.3125 321.582031 242.257812 321.980469 239.175781 C 322.238281 237.410156 322.519531 235.652344 322.71875 233.890625 C 322.914062 232.242188 323.195312 230.59375 323.324219 228.949219 C 323.585938 225.742188 324.058594 222.546875 324.347656 219.339844 C 324.621094 216.019531 324.890625 212.695312 325.035156 209.367188 C 325.164062 206.140625 325.363281 202.902344 325.292969 199.664062 C 325.226562 197.867188 325.292969 196.136719 325.15625 194.421875 Z M 291.136719 55.558594 C 293.429688 57.21875 294.960938 59.136719 296.832031 60.941406 C 295.105469 59.355469 293.265625 57.917969 291.308594 56.628906 C 289.824219 55.71875 287.582031 55.328125 285.871094 54.570312 L 285.082031 53.382812 C 284.527344 52.566406 283.9375 51.742188 283.328125 50.921875 C 286.03125 52.292969 288.636719 53.839844 291.136719 55.558594 Z M 159.539062 46.039062 C 162.386719 45.664062 165.199219 45.265625 168.0625 44.949219 L 173.875 44.261719 C 175.027344 44.132812 176.171875 43.976562 177.304688 43.871094 L 187.105469 42.964844 C 191.355469 42.664062 195.601562 42.363281 199.878906 42.136719 C 204.296875 41.894531 208.746094 41.683594 213.191406 41.59375 C 225.019531 41.320312 236.933594 41.039062 248.6875 41.855469 C 251.042969 42.054688 253.375 42.3125 255.675781 42.636719 C 258.734375 43.53125 261.738281 44.578125 264.6875 45.785156 C 266.992188 46.800781 269.242188 47.929688 271.433594 49.171875 C 269.3125 48.667969 267.183594 48.195312 264.988281 47.796875 L 260.148438 46.972656 C 258.695312 46.71875 257.15625 46.570312 255.683594 46.371094 C 254.488281 46.207031 253.320312 46.035156 252.097656 45.910156 L 246.683594 45.339844 C 245.230469 45.183594 243.726562 45.101562 242.257812 44.984375 C 239.113281 44.738281 235.945312 44.542969 232.78125 44.371094 C 229.746094 44.195312 226.664062 44.132812 223.632812 44.0625 C 220.832031 43.988281 218.011719 43.917969 215.210938 43.898438 C 211.597656 43.871094 207.980469 43.855469 204.359375 43.851562 C 201.742188 43.851562 199.121094 43.863281 196.496094 43.886719 C 193.46875 43.886719 190.449219 44.015625 187.414062 44.113281 C 186.042969 44.144531 184.722656 44.261719 183.398438 44.339844 C 181.703125 44.425781 179.96875 44.511719 178.328125 44.640625 C 175.398438 44.875 172.472656 45.09375 169.5625 45.328125 L 160.609375 46.191406 L 153.585938 46.878906 C 155.5625 46.601562 157.539062 46.289062 159.539062 46.039062 Z M 91.34375 52.730469 C 97.601562 50.148438 104.019531 48.078125 110.601562 46.515625 L 110.863281 46.453125 L 110.761719 46.453125 L 111.152344 46.363281 L 110.972656 46.402344 C 113.71875 45.8125 116.519531 45.277344 119.4375 44.820312 C 122.601562 44.339844 125.832031 43.980469 129.085938 43.6875 C 131.269531 43.488281 133.464844 43.34375 135.648438 43.179688 L 135.578125 43.179688 C 141.445312 42.828125 147.367188 42.492188 153.285156 42.101562 C 150.167969 42.53125 147.058594 42.988281 143.957031 43.472656 C 141.144531 43.914062 138.324219 44.332031 135.523438 44.785156 C 132.578125 45.273438 129.605469 45.71875 126.703125 46.253906 L 116.636719 48.121094 C 115.6875 48.296875 114.726562 48.511719 113.773438 48.71875 C 111.714844 49.136719 109.699219 49.566406 107.636719 49.980469 C 101.847656 51.179688 96.144531 52.566406 90.480469 53.914062 C 89.191406 54.226562 87.914062 54.546875 86.652344 54.867188 C 88.113281 54.144531 89.71875 53.425781 91.34375 52.730469 Z M 61.855469 75.113281 C 62.925781 73.789062 64.011719 72.464844 65.074219 71.132812 C 66.136719 69.800781 67.398438 68.648438 68.585938 67.433594 C 69.589844 66.402344 70.75 65.421875 71.875 64.433594 C 75.738281 62.945312 79.863281 61.6875 84.089844 60.527344 C 85.957031 60.019531 87.894531 59.5625 89.773438 59.085938 C 92.644531 58.359375 95.539062 57.714844 98.414062 57.027344 C 97.726562 57.296875 96.960938 57.515625 96.265625 57.796875 C 94.449219 58.484375 92.628906 59.230469 90.835938 59.964844 L 84.660156 62.566406 C 82.519531 63.480469 80.378906 64.414062 78.332031 65.402344 C 77.058594 66.027344 75.757812 66.636719 74.449219 67.269531 C 71.488281 68.679688 68.652344 70.296875 65.929688 72.128906 C 63.679688 73.636719 62.402344 75.484375 60.523438 77.128906 C 60.992188 76.417969 61.429688 75.75 61.855469 75.113281 Z M 301.679688 268.292969 C 300.304688 271.199219 298.933594 274.078125 297.332031 276.933594 C 295.734375 279.789062 293.902344 282.425781 292.082031 285.171875 C 291.308594 286.164062 290.546875 287.160156 289.792969 288.167969 C 287.578125 290.890625 285.167969 293.429688 282.570312 295.789062 C 281.707031 296.542969 280.875 297.289062 280.03125 298.046875 C 279.347656 298.648438 278.5625 299.238281 277.820312 299.832031 C 276.394531 300.957031 274.914062 302.066406 273.410156 303.164062 C 267.949219 307.0625 262.15625 310.390625 256.039062 313.144531 C 253.671875 314.125 251.261719 314.976562 248.804688 315.699219 L 245.011719 316.773438 C 243.199219 317.304688 241.277344 317.742188 239.394531 318.214844 C 236.691406 318.828125 233.996094 319.4375 231.261719 320 C 228.53125 320.5625 225.863281 321.070312 223.128906 321.566406 C 220.398438 322.058594 217.605469 322.484375 214.796875 322.875 C 213.371094 323.070312 211.945312 323.300781 210.488281 323.453125 C 208.839844 323.625 207.199219 323.804688 205.554688 323.988281 C 204.070312 324.089844 202.574219 324.199219 201.101562 324.316406 C 198.074219 324.488281 195.019531 324.542969 191.992188 324.59375 C 188.964844 324.640625 186.070312 324.648438 183.140625 324.558594 C 179.707031 324.460938 176.351562 324.351562 172.976562 324.199219 C 170.132812 324.0625 167.332031 323.871094 164.507812 323.679688 C 162.570312 323.492188 160.621094 323.34375 158.699219 323.101562 C 156.511719 322.828125 154.339844 322.5625 152.171875 322.222656 C 150.003906 321.886719 147.710938 321.539062 145.46875 321.140625 C 143.863281 320.851562 142.234375 320.535156 140.664062 320.199219 L 144.09375 320.726562 C 145.242188 320.90625 146.367188 321.066406 147.527344 321.214844 C 148.980469 321.40625 150.4375 321.632812 151.90625 321.769531 C 155.027344 322.082031 158.128906 322.390625 161.253906 322.636719 C 162.734375 322.753906 164.230469 322.910156 165.707031 322.964844 L 171.453125 323.246094 C 174.195312 323.382812 176.941406 323.351562 179.6875 323.382812 C 180.1875 323.382812 180.710938 323.382812 181.230469 323.351562 C 182.246094 323.308594 183.25 323.289062 184.265625 323.261719 C 185.480469 323.226562 186.695312 323.191406 187.886719 323.125 C 190.511719 322.964844 193.140625 322.847656 195.71875 322.621094 C 199.152344 322.328125 202.582031 322.046875 206.015625 321.667969 C 209.308594 321.296875 212.539062 320.839844 215.746094 320.296875 C 218.949219 319.753906 222.019531 319.019531 225.03125 318.203125 C 229.875 316.921875 234.609375 315.320312 239.238281 313.398438 L 243.546875 311.578125 C 244.960938 310.984375 246.292969 310.324219 247.664062 309.6875 L 249.09375 309 C 249.890625 308.710938 250.6875 308.414062 251.476562 308.113281 C 253.230469 307.425781 254.90625 306.699219 256.574219 305.964844 C 258.242188 305.230469 259.675781 304.523438 261.171875 303.761719 C 264.183594 302.214844 267.070312 300.457031 269.828125 298.492188 C 274.714844 294.949219 279.3125 291.058594 283.613281 286.824219 C 286.585938 284.03125 289.542969 281.230469 292.335938 278.382812 C 293.710938 276.960938 295.191406 275.570312 296.457031 274.128906 C 297.925781 272.460938 299.359375 270.800781 300.835938 269.144531 C 301.246094 268.660156 301.625 268.148438 301.972656 267.613281 C 301.84375 267.863281 301.78125 268.082031 301.679688 268.292969 Z M 301.679688 268.292969 " fill-opacity="1" fill-rule="nonzero"/></g><path fill="#f0f0f0" d="M 84.296875 62.691406 L 84.679688 62.527344 L 84.902344 62.429688 Z M 84.296875 62.691406 " fill-opacity="1" fill-rule="nonzero"/><path fill="#f13751" d="M 74.785156 207.316406 C 75.261719 206.996094 75.71875 206.652344 76.15625 206.285156 C 81.730469 201.667969 87.359375 197.117188 92.785156 192.332031 C 92.953125 196.21875 93.179688 200.105469 93.472656 204 C 94.023438 211.550781 95.113281 219.003906 95.910156 226.511719 C 96.738281 234.261719 97.597656 242.03125 98.09375 249.8125 C 98.148438 250.742188 98.335938 251.648438 98.660156 252.523438 L 98.855469 252.46875 C 101.191406 251.796875 103.574219 251.382812 106 251.226562 C 107.972656 250.910156 109.894531 250.394531 111.761719 249.683594 C 112.523438 249.386719 113.285156 249.132812 114.046875 248.914062 C 113.15625 235.648438 111.304688 222.484375 110.007812 209.257812 L 110.398438 208.742188 C 111.832031 206.953125 113.3125 205.242188 114.871094 203.5625 C 116.339844 202.03125 117.917969 200.625 119.609375 199.339844 C 124.710938 195.566406 130.164062 192.394531 135.96875 189.820312 C 136.964844 189.4375 137.960938 189.082031 138.96875 188.773438 C 139.46875 195.511719 138.789062 202.332031 139.066406 209.078125 C 139.234375 213.382812 139.648438 217.789062 141.125 221.851562 C 142.042969 224.527344 143.480469 226.882812 145.441406 228.921875 C 147.300781 230.875 149.792969 231.988281 152.304688 232.867188 L 153.546875 233.023438 C 154.53125 233.269531 155.53125 233.363281 156.542969 233.3125 C 157.855469 233.246094 159.15625 233.097656 160.449219 232.867188 C 161.746094 232.675781 163.03125 232.429688 164.3125 232.140625 C 167.246094 231.453125 169.996094 229.976562 172.609375 228.550781 C 174.3125 227.609375 175.96875 226.558594 177.609375 225.511719 C 180.96875 223.355469 184.148438 220.878906 187.351562 218.476562 C 190.558594 216.074219 193.84375 213.566406 197.09375 211.105469 C 198.101562 210.328125 199.117188 209.554688 200.132812 208.765625 C 200.40625 209.019531 200.695312 209.257812 200.976562 209.5 C 201.957031 210.328125 202.992188 211.054688 204.039062 211.804688 C 205.789062 213.082031 207.933594 213.792969 209.941406 214.550781 C 212.101562 215.234375 214.316406 215.589844 216.582031 215.613281 C 218.460938 215.652344 220.328125 215.542969 222.191406 215.285156 C 224.726562 215.066406 227.222656 214.632812 229.683594 213.980469 C 238.179688 211.542969 245.667969 206.800781 252.949219 201.90625 C 259.210938 197.699219 265.480469 193.238281 270.960938 187.988281 C 271.089844 188.203125 271.207031 188.429688 271.335938 188.632812 C 272.921875 191.066406 274.890625 193.125 277.253906 194.8125 C 281.859375 198.242188 287.738281 199.71875 293.4375 199.574219 C 299.132812 199.429688 304.789062 197.386719 309.714844 194.570312 C 313.464844 192.292969 316.800781 189.515625 319.722656 186.238281 C 321.175781 184.675781 322.605469 183.0625 323.941406 181.378906 C 324.46875 180.695312 324.976562 180.054688 325.492188 179.390625 C 325.445312 182.820312 325.355469 186.199219 325.21875 189.601562 C 325.21875 189.871094 325.21875 190.128906 325.175781 190.40625 C 322.175781 191.804688 319.265625 193.375 316.449219 195.121094 C 308.992188 199.949219 301.96875 205.34375 295.378906 211.296875 C 291.65625 214.441406 288.195312 217.855469 284.992188 221.53125 C 283.367188 223.4375 281.941406 225.480469 280.710938 227.664062 C 279.339844 230.226562 278.898438 232.867188 278.523438 235.707031 C 278.125 238.726562 279.476562 241.652344 280.621094 244.335938 C 281.742188 246.628906 283.273438 248.601562 285.21875 250.25 C 286.902344 251.792969 288.765625 253.074219 290.808594 254.089844 C 292.855469 255.105469 295 255.820312 297.246094 256.230469 C 300.117188 256.753906 302.996094 256.828125 305.890625 256.457031 C 308.273438 256.175781 310.621094 255.714844 312.933594 255.082031 C 315.300781 254.382812 317.589844 253.480469 319.796875 252.378906 C 321.800781 251.429688 323.640625 250.226562 325.320312 248.777344 C 327 247.328125 328.457031 245.683594 329.691406 243.839844 C 330.800781 242.214844 331.773438 240.507812 332.609375 238.726562 C 334.484375 234.660156 336 230.460938 337.160156 226.132812 C 338.257812 221.75 339 217.304688 339.390625 212.800781 C 339.816406 208.878906 340.167969 204.96875 340.480469 201.050781 C 345.972656 199.023438 351.613281 197.570312 357.398438 196.691406 C 361.25 196.203125 365.121094 195.746094 368.957031 195.15625 C 370.726562 194.894531 372.484375 194.605469 374.214844 194.1875 C 374.488281 194.125 374.757812 194.054688 375.023438 193.980469 C 374.859375 191.488281 374.632812 189.011719 374.390625 186.519531 C 374.085938 183.511719 373.964844 180.492188 374.023438 177.46875 C 373.601562 177.59375 373.191406 177.753906 372.800781 177.949219 C 369.722656 178.894531 366.578125 179.546875 363.378906 179.898438 C 359.175781 180.425781 354.9375 180.839844 350.761719 181.605469 C 347.589844 182.1875 344.453125 182.9375 341.359375 183.859375 C 341.421875 181.265625 341.476562 178.683594 341.496094 176.097656 C 341.574219 169.363281 341.496094 162.628906 341.613281 155.898438 C 341.613281 154.636719 341.648438 153.371094 341.664062 152.109375 C 342.425781 150.285156 343.066406 148.421875 343.589844 146.515625 C 344.59375 142.808594 345.355469 138.828125 345.003906 134.992188 C 344.929688 133.957031 344.773438 132.933594 344.539062 131.925781 C 343.316406 132 342.089844 132.097656 340.867188 132.21875 C 338.808594 132.5625 336.75 133.03125 334.691406 133.402344 C 332.273438 133.839844 329.886719 134.085938 327.433594 134.390625 C 327.195312 134.429688 326.96875 134.464844 326.75 134.511719 C 326.378906 136.730469 326.199219 138.980469 326.0625 141.222656 C 325.894531 143.808594 325.769531 146.398438 325.683594 148.992188 C 322.269531 155.996094 318.21875 162.609375 313.523438 168.828125 C 310.632812 172.621094 307.394531 176.089844 303.8125 179.238281 C 302.28125 180.3125 300.679688 181.265625 299.007812 182.101562 C 297.46875 182.691406 295.890625 183.148438 294.273438 183.472656 C 293.128906 183.554688 291.984375 183.554688 290.839844 183.472656 C 289.945312 183.296875 289.0625 183.066406 288.191406 182.789062 C 287.550781 182.457031 286.925781 182.09375 286.320312 181.695312 C 285.90625 181.328125 285.519531 180.9375 285.152344 180.523438 C 284.84375 180.042969 284.570312 179.554688 284.292969 179.046875 C 283.933594 177.976562 283.652344 176.886719 283.441406 175.78125 C 283.21875 171.234375 283.25 166.6875 283.539062 162.144531 C 283.730469 157.738281 284.15625 153.351562 284.679688 148.972656 C 285.085938 146.171875 285.542969 143.382812 286.050781 140.605469 L 283.835938 140.257812 C 279.242188 139.742188 274.625 139.941406 270.03125 139.570312 C 268.808594 146.90625 267.972656 154.285156 267.527344 161.710938 C 267.398438 164.066406 267.308594 166.433594 267.273438 168.800781 C 266.640625 169.117188 266.09375 169.546875 265.632812 170.082031 C 261.742188 174.816406 257.359375 179.03125 252.484375 182.738281 C 244.839844 188.167969 237.125 193.609375 228.574219 197.523438 C 226.375 198.261719 224.132812 198.839844 221.855469 199.257812 C 219.917969 199.472656 217.976562 199.566406 216.027344 199.53125 C 215.285156 199.367188 214.554688 199.167969 213.832031 198.929688 C 213.207031 198.59375 212.609375 198.242188 212.027344 197.867188 C 213.042969 196.777344 214.019531 195.652344 214.964844 194.488281 C 217.785156 190.996094 220.324219 187.289062 222.863281 183.609375 C 227.480469 176.941406 232.472656 170.359375 235.976562 163.023438 C 238.929688 156.84375 240.382812 149.824219 237.851562 143.226562 C 236.527344 139.753906 234.503906 136.757812 231.777344 134.230469 C 229.914062 132.554688 227.816406 131.25 225.484375 130.324219 C 223.152344 129.398438 220.730469 128.910156 218.222656 128.851562 L 217.894531 128.851562 C 214.121094 128.851562 210.34375 130.484375 207.1875 132.433594 C 204.160156 134.378906 201.632812 136.839844 199.605469 139.8125 C 197.417969 142.824219 195.554688 146.027344 194.015625 149.417969 C 192.214844 153.457031 190.796875 157.625 189.753906 161.921875 C 188.773438 166.359375 188.195312 170.84375 188.011719 175.382812 C 187.691406 179.625 187.910156 183.835938 188.664062 188.023438 C 189.1875 190.640625 189.960938 193.183594 190.976562 195.648438 C 190.386719 196.128906 189.789062 196.617188 189.1875 197.089844 C 184.820312 200.4375 180.429688 203.757812 176.015625 207.042969 C 171.535156 210.492188 166.785156 213.515625 161.761719 216.113281 C 160.347656 216.585938 158.902344 216.941406 157.429688 217.179688 C 157.136719 217.179688 156.839844 217.21875 156.542969 217.234375 C 156.460938 217.089844 156.378906 216.9375 156.304688 216.785156 C 155.917969 215.585938 155.613281 214.367188 155.386719 213.128906 C 154.734375 206.671875 155.070312 200.152344 155.105469 193.660156 C 155.105469 189.164062 155.007812 184.496094 153.351562 180.269531 C 152.800781 178.675781 151.964844 177.253906 150.839844 176 C 150.03125 175.1875 149.152344 174.460938 148.207031 173.816406 C 146.359375 172.445312 143.527344 172.121094 141.34375 172.039062 C 139.59375 172.070312 137.886719 172.34375 136.214844 172.863281 C 135.53125 173.0625 134.789062 173.246094 134.089844 173.5 C 126.753906 176.011719 119.925781 179.507812 113.601562 183.988281 C 111.949219 185.15625 110.292969 186.355469 108.6875 187.625 C 108.597656 184.195312 108.523438 180.761719 108.496094 177.332031 C 108.496094 176.90625 108.496094 176.480469 108.496094 176.054688 C 110.398438 173.589844 112.191406 171.03125 113.878906 168.382812 C 118.332031 161.375 121.886719 153.929688 125.511719 146.480469 C 127.210938 142.996094 128.941406 139.515625 130.546875 135.972656 C 132.367188 131.949219 133.738281 127.777344 134.664062 123.457031 C 135.148438 120.984375 135.46875 118.488281 135.625 115.976562 C 135.773438 114.015625 135.796875 112.054688 135.695312 110.09375 C 135.394531 103.984375 133.636719 97.980469 129.222656 93.554688 C 126.894531 91.242188 123.84375 89.8125 120.78125 88.8125 C 119.1875 88.289062 117.554688 88.035156 115.882812 88.042969 C 112.605469 88.078125 109.539062 88.902344 106.683594 90.511719 C 104.5625 91.851562 102.730469 93.511719 101.195312 95.496094 C 98.667969 98.507812 97.078125 101.777344 95.601562 105.363281 C 94.929688 107.164062 94.410156 109.007812 94.050781 110.898438 C 93.472656 113.511719 93 116.125 92.675781 118.773438 C 92.140625 122.894531 91.867188 126.964844 91.730469 131.128906 C 91.429688 139.578125 91.785156 148.03125 92.085938 156.480469 C 92.25 161.148438 92.363281 165.828125 92.4375 170.496094 C 84.152344 179.574219 74.359375 187.199219 64.910156 195.03125 C 64.71875 195.1875 64.546875 195.359375 64.386719 195.546875 C 64.875 196.230469 65.363281 196.960938 65.871094 197.644531 C 67.996094 200.152344 70.488281 202.3125 72.644531 204.777344 C 73.316406 205.574219 74.058594 206.4375 74.785156 207.316406 Z M 323.179688 214.535156 C 322.371094 219.839844 321 224.988281 319.0625 229.992188 C 318.175781 231.890625 317.160156 233.722656 316.023438 235.480469 C 315.582031 235.984375 315.128906 236.449219 314.648438 236.910156 C 313.398438 237.683594 312.097656 238.371094 310.75 238.96875 C 308.8125 239.609375 306.839844 240.121094 304.835938 240.503906 C 303.949219 240.582031 303.085938 240.617188 302.21875 240.617188 C 301.644531 240.617188 301.066406 240.617188 300.492188 240.566406 C 299.761719 240.410156 299.054688 240.203125 298.34375 239.984375 C 297.753906 239.667969 297.191406 239.347656 296.628906 238.980469 C 296.0625 238.617188 295.652344 238.0625 295.199219 237.574219 C 294.945312 237.1875 294.71875 236.785156 294.511719 236.367188 C 294.511719 236.3125 294.472656 236.265625 294.457031 236.214844 L 294.652344 235.488281 C 295.15625 234.535156 295.722656 233.621094 296.351562 232.742188 C 299.679688 228.707031 303.621094 225.242188 307.539062 221.804688 C 310.65625 219.058594 313.867188 216.421875 317.148438 213.863281 C 319.300781 212.320312 321.476562 210.855469 323.707031 209.472656 C 323.570312 211.171875 323.386719 212.859375 323.179688 214.535156 Z M 204.449219 170.199219 C 205.132812 165.914062 206.242188 161.742188 207.777344 157.683594 C 209.238281 154.507812 210.960938 151.480469 212.945312 148.601562 C 213.617188 147.820312 214.335938 147.082031 215.101562 146.386719 C 215.738281 145.96875 216.398438 145.589844 217.078125 145.238281 C 217.46875 145.117188 217.859375 145.007812 218.257812 144.910156 L 218.863281 144.910156 L 219.128906 144.984375 C 219.742188 145.292969 220.335938 145.628906 220.914062 146 C 221.25 146.335938 221.566406 146.6875 221.882812 147.015625 C 222.203125 147.519531 222.5 148.027344 222.78125 148.554688 C 222.902344 148.945312 223.015625 149.335938 223.109375 149.734375 C 223.136719 150.421875 223.125 151.109375 223.074219 151.792969 C 222.789062 152.933594 222.441406 154.050781 222.027344 155.148438 C 219.484375 160.339844 216.226562 165.058594 212.960938 169.816406 C 210.007812 174.113281 207.0625 178.402344 203.996094 182.601562 C 203.816406 178.457031 203.964844 174.320312 204.449219 170.199219 Z M 157.78125 217.554688 C 157.402344 217.550781 157.027344 217.5 156.660156 217.410156 Z M 108.429688 120.242188 C 108.976562 116.605469 109.847656 113.050781 111.042969 109.570312 C 111.664062 108.363281 112.351562 107.191406 113.101562 106.058594 C 113.660156 105.417969 114.253906 104.8125 114.878906 104.238281 C 114.902344 104.226562 114.925781 104.210938 114.949219 104.191406 C 115.097656 104.15625 115.25 104.101562 115.414062 104.066406 L 115.777344 104.066406 C 116.191406 104.164062 116.601562 104.28125 117 104.402344 C 117.398438 104.527344 117.652344 104.769531 117.96875 104.96875 L 118.394531 105.390625 C 118.542969 105.652344 118.6875 105.921875 118.832031 106.183594 C 119.121094 107.109375 119.339844 108.035156 119.519531 108.96875 C 119.746094 112.019531 119.6875 115.066406 119.339844 118.109375 C 118.71875 121.566406 117.765625 124.933594 116.484375 128.207031 C 113.683594 134.347656 110.664062 140.40625 107.671875 146.449219 C 107.46875 137.703125 107.417969 128.945312 108.429688 120.242188 Z M 108.429688 120.242188 " fill-opacity="1" fill-rule="nonzero"/></svg>