<svg xmlns="http://www.w3.org/2000/svg" version="1.1" xmlns:xlink="http://www.w3.org/1999/xlink" xmlns:svgjs="http://svgjs.dev/svgjs" width="1440" height="560" preserveAspectRatio="none" viewBox="0 0 1440 560"><g mask="url(&quot;#SvgjsMask1101&quot;)" fill="none"><path d="M -111.71318940308936,195 C 32.29,251.4 320.29,497.6 608.2868105969106,477 C 896.29,456.4 1040.29,125.8 1328.2868105969105,92 C 1616.29,58.2 2025.94,325 2048.2868105969105,308 C 2070.63,291 1561.66,67.2 1440,7" stroke="rgba(241, 55, 81, 0.5)" stroke-width="2"></path><path d="M -230.08018132961183,227 C -86.08,285.6 201.92,530 489.91981867038817,520 C 777.92,510 921.92,184.4 1209.9198186703882,177 C 1497.92,169.6 1883.9,476.8 1929.9198186703882,483 C 1975.94,489.2 1537.98,263 1440,208" stroke="rgba(241, 55, 81, 0.5)" stroke-width="2"></path><path d="M -233.0234961593447,81 C -89.02,172.2 198.98,531.6 486.9765038406553,537 C 774.98,542.4 918.98,151.8 1206.9765038406554,108 C 1494.98,64.2 1880.37,298.2 1926.9765038406554,318 C 1973.58,337.8 1537.4,229.2 1440,207" stroke="rgba(241, 55, 81, 0.5)" stroke-width="2"></path><path d="M -1335.839322318806,289 C -1191.84,269 -903.84,166.8 -615.8393223188059,189 C -327.84,211.2 -183.84,417.2 104.1606776811941,400 C 392.16,382.8 556.99,119.4 824.1606776811941,103 C 1091.33,86.6 1316.83,275 1440,318" stroke="rgba(241, 55, 81, 0.5)" stroke-width="2"></path></g><defs><mask id="SvgjsMask1101"><rect width="1440" height="560" fill="#ffffff"></rect></mask></defs></svg>