<svg xmlns="http://www.w3.org/2000/svg" version="1.1" xmlns:xlink="http://www.w3.org/1999/xlink" xmlns:svgjs="http://svgjs.dev/svgjs" width="1440" height="560" preserveAspectRatio="none" viewBox="0 0 1440 560"><g mask="url(&quot;#SvgjsMask1135&quot;)" fill="none"><path d="M -327.3851359829989,48 C -183.39,99 104.61,304 392.6148640170011,303 C 680.61,302 824.61,31.8 1112.614864017001,43 C 1400.61,54.2 1767.14,358.8 1832.614864017001,359 C 1898.09,359.2 1518.52,107 1440,44" stroke="rgba(241, 55, 81, 0.5)" stroke-width="2"></path><path d="M -375.042965489162,514 C -231.04,434 56.96,140 344.957034510838,114 C 632.96,88 776.96,396.8 1064.957034510838,384 C 1352.96,371.2 1709.95,26.6 1784.957034510838,50 C 1859.97,73.4 1508.99,410.8 1440,501" stroke="rgba(241, 55, 81, 0.5)" stroke-width="2"></path><path d="M -974.7813519559545,64 C -830.78,123.8 -542.78,323.6 -254.78135195595445,363 C 33.22,402.4 177.22,262.8 465.21864804404555,261 C 753.22,259.2 990.26,359.8 1185.2186480440455,354 C 1380.17,348.2 1389.04,256.4 1440,232" stroke="rgba(241, 55, 81, 0.5)" stroke-width="2"></path><path d="M -719.4315652778605,434 C -575.43,388.4 -287.43,183.8 0.5684347221394503,206 C 288.57,228.2 432.57,547.4 720.5684347221395,545 C 1008.57,542.6 1296.68,206.4 1440.5684347221395,194 C 1584.45,181.6 1440.11,425.2 1440,483" stroke="rgba(241, 55, 81, 0.5)" stroke-width="2"></path></g><defs><mask id="SvgjsMask1135"><rect width="1440" height="560" fill="#ffffff"></rect></mask></defs></svg>