<svg xmlns="http://www.w3.org/2000/svg" version="1.1" xmlns:xlink="http://www.w3.org/1999/xlink" xmlns:svgjs="http://svgjs.dev/svgjs" width="1440" height="560" preserveAspectRatio="none" viewBox="0 0 1440 560"><g mask="url(&quot;#SvgjsMask1116&quot;)" fill="none"><path d="M -1308.102260242312,273 C -1164.1,298 -876.1,445.6 -588.102260242312,398 C -300.1,350.4 -156.1,6.2 131.897739757688,35 C 419.9,63.8 590.28,501.2 851.897739757688,542 C 1113.52,582.8 1322.38,299.6 1440,239" stroke="rgba(241, 55, 81, 0.5)" stroke-width="2"></path><path d="M -752.6945257757536,44 C -608.69,109.6 -320.69,338.2 -32.69452577575361,372 C 255.31,405.8 399.31,217 687.3054742242464,213 C 975.31,209 1256.77,348.2 1407.3054742242464,352 C 1557.84,355.8 1433.46,256 1440,232" stroke="rgba(241, 55, 81, 0.5)" stroke-width="2"></path><path d="M -1071.795258659647,417 C -927.8,369 -639.8,179.2 -351.795258659647,177 C -63.8,174.8 80.2,399 368.204741340353,406 C 656.2,413 873.85,222 1088.204741340353,212 C 1302.56,202 1369.64,327.2 1440,356" stroke="rgba(241, 55, 81, 0.5)" stroke-width="2"></path><path d="M -1358.6132129547327,493 C -1214.61,438.2 -926.61,226 -638.6132129547326,219 C -350.61,212 -206.61,473 81.3867870452674,458 C 369.39,443 529.66,163.4 801.3867870452674,144 C 1073.11,124.6 1312.28,317.6 1440,361" stroke="rgba(241, 55, 81, 0.5)" stroke-width="2"></path></g><defs><mask id="SvgjsMask1116"><rect width="1440" height="560" fill="#ffffff"></rect></mask></defs></svg>